<?xml version="1.0" encoding="UTF-8"?>
<!-- Generator: visioncortex VTracer 0.6.12 -->
<svg version="1.1" xmlns="http://www.w3.org/2000/svg" width="1500" height="744" viewBox="0 0 1500 744">
<path d="M0 0 C4.463 -0.388 4.463 -0.388 6.837 1.329 C7.391 1.939 7.945 2.548 8.516 3.176 C9.127 3.839 9.738 4.502 10.367 5.186 C10.989 5.887 11.61 6.589 12.25 7.312 C12.887 8.003 13.524 8.693 14.18 9.404 C18.848 14.545 18.848 14.545 20 18 C20.99 18.33 21.98 18.66 23 19 C24.508 20.531 24.508 20.531 26.125 22.5 C29.423 26.396 32.931 29.978 36.594 33.531 C38.574 35.563 40.439 37.625 42.297 39.766 C46.003 44.036 49.858 48.149 53.75 52.25 C59.261 58.079 64.722 63.945 70.125 69.875 C72.375 72.333 74.652 74.763 76.938 77.188 C77.62 77.912 78.302 78.636 79.006 79.383 C80.352 80.81 81.701 82.235 83.051 83.658 C83.665 84.309 84.278 84.959 84.91 85.629 C85.458 86.207 86.006 86.785 86.571 87.381 C90.261 91.56 90.28 94.794 90.241 100.105 C90.242 100.941 90.244 101.777 90.246 102.638 C90.249 105.447 90.238 108.257 90.227 111.067 C90.226 113.077 90.227 115.088 90.228 117.098 C90.229 122.565 90.217 128.031 90.203 133.498 C90.19 139.207 90.189 144.917 90.187 150.626 C90.181 161.442 90.164 172.258 90.144 183.074 C90.122 195.386 90.111 207.698 90.101 220.01 C90.08 245.34 90.045 270.67 90 296 C85.474 295.259 83.622 294.11 80.383 290.809 C79.528 289.946 78.674 289.083 77.793 288.193 C77.353 287.739 77.353 287.739 75.125 285.438 C74.252 284.555 73.38 283.673 72.48 282.764 C55.878 265.874 41.829 247.326 29.141 227.367 C27.763 225.201 26.378 223.039 24.984 220.883 C24.678 220.407 24.678 220.407 23.125 218 C22.591 217.175 22.058 216.35 21.508 215.5 C19.839 212.733 18.431 209.897 17 207 C16.298 205.68 15.591 204.362 14.879 203.047 C8.531 191.297 3.785 179.584 -0.54 166.954 C-0.684 166.535 -0.684 166.535 -1.414 164.414 C-1.671 163.661 -1.929 162.907 -2.194 162.131 C-3 160 -3 160 -4.05 157.909 C-5.361 155.274 -5.874 152.621 -6.5 149.75 C-7.292 146.165 -8.088 142.602 -9.062 139.062 C-10.244 134.424 -10.809 129.692 -11.438 124.953 C-11.749 122.762 -12.079 120.572 -12.482 118.396 C-13.773 111.344 -14.307 104.579 -14.301 97.418 C-14.305 96.361 -14.309 95.303 -14.314 94.214 C-14.319 91.995 -14.32 89.776 -14.316 87.556 C-14.313 84.206 -14.336 80.856 -14.361 77.506 C-14.395 65.885 -13.783 55.288 -11 44 C-10.383 40.357 -9.976 36.69 -9.527 33.023 C-9.014 30.082 -8.138 27.747 -7 25 C-6.508 22.987 -6.052 20.965 -5.625 18.938 C-4.183 12.458 -2.219 6.252 0 0 Z " fill="#567F28" transform="translate(258,263)"/>
<path d="M0 0 C5.637 1.127 6.45 2.035 10.125 6.188 C10.599 6.721 11.072 7.254 11.561 7.803 C16.483 13.413 21.064 19.29 25.612 25.205 C27.481 27.622 29.38 30.014 31.278 32.408 C36.356 38.82 41.255 45.336 46 52 C46.548 52.749 47.096 53.498 47.66 54.27 C53.139 61.872 57.93 69.899 62.75 77.927 C63.778 79.633 64.824 81.328 65.875 83.02 C76.149 99.887 85.219 119.092 91 138 C91.306 138.949 91.611 139.898 91.926 140.875 C95.77 152.988 99.198 165.403 101 178 C101.17 179.118 101.34 180.235 101.516 181.387 C101.655 182.538 101.794 183.689 101.938 184.875 C102.07 185.924 102.203 186.974 102.34 188.055 C101.661 193.938 95.713 197.11 91.329 200.604 C76.799 212.201 63.989 224.997 53 240 C52.679 240.435 52.679 240.435 51.055 242.637 C46.343 249.197 42.156 256.079 38 263 C37.366 264.049 36.732 265.099 36.078 266.18 C30.596 275.386 26.547 284.971 22.5 294.875 C22.122 295.792 21.745 296.708 21.355 297.652 C17.276 307.619 13.657 317.559 11 328 C10.68 329.24 10.361 330.48 10.031 331.758 C7.807 340.464 5.815 349.198 4 358 C2.68 358.33 1.36 358.66 0 359 C0 240.53 0 122.06 0 0 Z " fill="#577F29" transform="translate(360,128)"/>
<path d="M0 0 C0.839 3.481 1.037 6.229 0.512 9.766 C0.447 10.211 0.447 10.211 0.119 12.465 C-0.023 13.384 -0.166 14.303 -0.312 15.25 C-0.443 16.154 -0.574 17.057 -0.709 17.988 C-1.457 23.012 -2.381 27.953 -3.525 32.901 C-4.25 36.105 -4.832 39.334 -5.438 42.562 C-6.522 48.028 -7.875 52.865 -10 58 C-10.448 59.33 -10.885 60.664 -11.312 62 C-11.87 63.668 -12.434 65.335 -13 67 C-13.387 68.142 -13.773 69.284 -14.172 70.461 C-20.402 88.26 -29.618 104.021 -41 119 C-41.422 119.557 -41.844 120.114 -42.279 120.688 C-46.407 126.079 -50.681 130.934 -55.918 135.262 C-58.282 137.235 -60.502 139.333 -62.75 141.438 C-70.376 148.297 -79.081 153.499 -87.812 158.812 C-88.422 159.186 -89.032 159.559 -89.661 159.943 C-93.65 162.333 -97.691 164.225 -102 166 C-103.731 166.808 -105.46 167.621 -107.188 168.438 C-113.007 171.079 -118.888 173.143 -125 175 C-125.638 175.196 -126.275 175.392 -126.932 175.594 C-149.032 182.311 -170.944 185.266 -194 185 C-194.21 178.003 -194.072 171.728 -192 165 C-191.878 164.528 -191.878 164.528 -191.258 162.137 C-189.271 154.654 -186.787 147.43 -184.062 140.188 C-183.739 139.316 -183.415 138.445 -183.082 137.548 C-180.849 131.722 -178.137 126.386 -175 121 C-174.742 120.526 -174.742 120.526 -173.438 118.129 C-165.972 104.8 -156.615 91.028 -146 80 C-145.34 80 -144.68 80 -144 80 C-143.745 79.419 -143.49 78.837 -143.227 78.238 C-139.462 71.369 -131.946 65.986 -126 61 C-125.432 60.524 -124.864 60.047 -124.279 59.557 C-115.836 52.505 -107.342 45.842 -98 40 C-96.93 39.323 -95.86 38.646 -94.758 37.949 C-87.969 33.708 -81.097 29.702 -74 26 C-73.43 25.701 -72.86 25.403 -72.272 25.095 C-23.168 -0.489 -23.168 -0.489 0 0 Z " fill="#567F28" transform="translate(567,384)"/>
<path d="M0 0 C5.048 16.152 5.497 33.357 5.391 50.148 C5.375 53.252 5.391 56.355 5.41 59.459 C5.408 61.445 5.404 63.432 5.398 65.418 C5.405 66.34 5.411 67.261 5.417 68.211 C5.412 68.636 5.412 68.636 5.388 70.786 C5.386 71.53 5.383 72.274 5.381 73.041 C4.893 75.553 3.986 76.433 2 78 C-0.305 78.66 -0.305 78.66 -2.875 79.062 C-6.516 79.698 -9.579 80.596 -13 82 C-15.102 82.493 -17.209 82.929 -19.328 83.34 C-27.36 85.324 -35.059 88.493 -42.75 91.5 C-43.764 91.891 -44.779 92.281 -45.824 92.684 C-46.805 93.066 -47.786 93.449 -48.797 93.844 C-49.677 94.186 -50.557 94.528 -51.464 94.881 C-54.129 96.057 -56.517 97.483 -59 99 C-61.325 100.018 -63.659 101.017 -66 102 C-75.11 106.243 -83.873 110.97 -92.5 116.125 C-93.324 116.615 -94.148 117.106 -94.997 117.611 C-100.244 120.789 -105.152 124.248 -110 128 C-111.078 128.809 -112.158 129.616 -113.238 130.422 C-119.612 135.249 -125.651 140.25 -131.516 145.699 C-133.66 147.685 -135.84 149.602 -138.062 151.5 C-151.974 163.687 -162.599 177.929 -172.81 193.235 C-173.813 194.723 -174.85 196.189 -175.895 197.648 C-180.952 204.967 -184.171 213.061 -187.449 221.293 C-187.852 222.272 -188.254 223.25 -188.668 224.258 C-189.021 225.146 -189.375 226.034 -189.739 226.95 C-191 229 -191 229 -193.146 229.796 C-193.452 229.83 -193.452 229.83 -195 230 C-195.431 222.316 -194.425 215.429 -192.793 207.926 C-191.701 202.773 -191.124 197.569 -190.527 192.34 C-190.006 189.037 -189.079 186.157 -188 183 C-187.648 181.09 -187.335 179.173 -187.062 177.25 C-186.017 170.617 -184.16 164.447 -182.023 158.098 C-181.005 155.016 -180.059 151.92 -179.125 148.812 C-171.857 125.152 -160.754 101.93 -146 82 C-145.57 81.418 -145.14 80.835 -144.697 80.235 C-114.885 40.271 -70.954 10.219 -21.094 2.543 C-16.64 1.761 -12.284 0.632 -7.91 -0.512 C-4.912 -1.015 -2.909 -0.798 0 0 Z " fill="#7FA058" transform="translate(564,295)"/>
<path d="M0 0 C12.319 -0.07 24.638 -0.123 36.957 -0.155 C42.68 -0.171 48.402 -0.192 54.124 -0.226 C59.661 -0.259 65.198 -0.277 70.736 -0.285 C72.833 -0.29 74.93 -0.301 77.027 -0.317 C103.154 -0.513 128.812 1.969 148.738 20.645 C156.929 29.175 160.59 38.606 160.438 50.375 C160.429 51.205 160.421 52.035 160.412 52.89 C160.078 65.061 155.565 73.717 146.816 82.09 C138.723 89.014 129.147 93.833 119 97 C119.466 97.14 119.466 97.14 121.824 97.848 C141.374 103.908 157.717 113.853 168 132 C173.53 144.182 175.124 157.492 171.031 170.414 C165.552 184.154 155.25 193.536 141.852 199.371 C123.984 206.26 106.297 206.417 87.402 206.293 C84.871 206.287 82.339 206.283 79.808 206.28 C73.872 206.27 67.937 206.246 62.002 206.216 C55.233 206.182 48.463 206.166 41.694 206.151 C27.796 206.12 13.898 206.067 0 206 C0 203.69 0 201.38 0 199 C0.941 198.841 1.882 198.683 2.852 198.52 C15.814 196.091 15.814 196.091 20 191 C23.299 184.612 24.121 177.866 24.14 170.741 C24.146 169.504 24.152 168.268 24.158 166.995 C24.159 165.637 24.16 164.28 24.161 162.923 C24.166 161.484 24.171 160.044 24.176 158.605 C24.189 154.704 24.196 150.802 24.2 146.901 C24.203 144.459 24.207 142.017 24.212 139.575 C24.225 131.921 24.235 124.266 24.239 116.612 C24.243 107.802 24.261 98.992 24.29 90.182 C24.312 83.355 24.322 76.529 24.323 69.702 C24.324 65.633 24.33 61.564 24.348 57.494 C24.364 53.661 24.366 49.828 24.358 45.995 C24.357 44.597 24.361 43.199 24.371 41.801 C24.441 31.373 24.059 20.876 18 12 C12.484 8.669 6.346 7.47 0 7 C0 4.69 0 2.38 0 0 Z M55 9 C55 37.38 55 65.76 55 95 C102.711 95 102.711 95 118.062 80.688 C125.827 72.173 129.594 61.569 129.18 50.047 C128.201 38.902 124.342 28.079 115.828 20.453 C98.041 6.315 77.136 9 55 9 Z M55 104 C54.93 112.885 54.877 121.77 54.845 130.655 C54.829 134.782 54.808 138.91 54.774 143.037 C54.741 147.031 54.723 151.025 54.715 155.019 C54.71 156.531 54.699 158.044 54.683 159.556 C54.431 183.797 54.431 183.797 60.188 191.688 C67.496 197.697 75.512 197.501 84.561 197.446 C86.666 197.438 88.768 197.466 90.873 197.498 C104.068 197.568 115.919 194.981 126 186 C136.218 175.429 138.433 163.439 138.211 149.234 C137.767 136.795 131.437 126.523 122.539 118.102 C110.67 108.278 96.252 103.792 80.977 103.902 C80.23 103.904 79.484 103.905 78.715 103.907 C76.352 103.912 73.988 103.925 71.625 103.938 C70.014 103.943 68.404 103.947 66.793 103.951 C62.862 103.962 58.931 103.979 55 104 Z " fill="#43701B" transform="translate(721,239)"/>
<path d="M0 0 C26.4 0 52.8 0 80 0 C80 2.31 80 4.62 80 7 C79.299 7.086 78.597 7.173 77.875 7.262 C71.536 8.201 65.564 9.188 61 14 C56.551 22.367 55.849 31.355 55.862 40.658 C55.861 41.081 55.861 41.081 55.853 43.224 C55.845 46.049 55.844 48.873 55.842 51.698 C55.838 53.729 55.832 55.76 55.827 57.79 C55.816 62.158 55.807 66.526 55.801 70.894 C55.79 77.808 55.77 84.722 55.748 91.636 C55.686 111.294 55.632 130.953 55.599 150.612 C55.58 161.474 55.551 172.335 55.511 183.197 C55.49 188.939 55.474 194.682 55.472 200.424 C55.47 205.829 55.454 211.234 55.427 216.639 C55.42 218.616 55.418 220.593 55.422 222.57 C55.449 241.295 53.036 257.639 39.473 271.746 C28.02 282.186 15.963 285.316 0.875 285.5 C0.374 285.509 0.374 285.509 -2.159 285.556 C-12.818 285.466 -22.131 282.307 -30 275 C-32.443 272.417 -34.759 269.759 -37 267 C-35.269 265.174 -34.052 264.025 -31.75 262.938 C-27.885 263.025 -26.561 264.943 -23.812 267.496 C-19.45 271.116 -13.844 271.409 -8.387 271.242 C0.205 270.37 6.935 267.17 13 261 C21.166 250.487 24.16 237.633 24.134 224.556 C24.135 224.138 24.135 224.138 24.141 222.023 C24.147 219.23 24.146 216.437 24.145 213.643 C24.148 211.637 24.152 209.631 24.155 207.625 C24.164 202.181 24.167 196.737 24.167 191.293 C24.168 187.89 24.17 184.487 24.173 181.084 C24.182 169.208 24.186 157.332 24.185 145.456 C24.185 134.393 24.195 123.33 24.211 112.267 C24.224 102.763 24.229 93.259 24.229 83.755 C24.229 78.081 24.231 72.407 24.242 66.733 C24.252 61.396 24.252 56.058 24.245 50.721 C24.243 48.765 24.246 46.81 24.252 44.854 C24.26 42.177 24.255 39.501 24.247 36.825 C24.252 36.057 24.258 35.29 24.263 34.499 C24.213 26.587 23.213 19.227 18 13 C12.762 8.286 6.752 7.83 0 7 C0 4.69 0 2.38 0 0 Z " fill="#3D6517" transform="translate(605,239)"/>
<path d="M0 0 C0.91 0.004 1.82 0.008 2.758 0.013 C14.949 0.214 26.284 2.903 37.887 6.543 C40.738 7.277 42.954 7.672 45.875 7.312 C46.329 6.488 46.783 5.662 47.25 4.812 C47.786 3.988 48.322 3.162 48.875 2.312 C51.185 2.312 53.495 2.312 55.875 2.312 C55.875 18.483 55.875 34.653 55.875 51.312 C53.235 51.312 50.595 51.312 47.875 51.312 C47.796 50.901 47.796 50.901 47.395 48.82 C44.615 35.522 40.055 25.24 28.562 17.562 C23.841 14.697 19.236 12.628 13.875 11.312 C13.14 11.131 12.405 10.949 11.648 10.762 C-1.277 8.668 -15.671 9.45 -26.625 17.188 C-33.067 22.639 -36.759 27.934 -38.125 36.312 C-38.484 46.379 -35.565 54.841 -29 62.438 C-17.452 74.433 -3.171 82.291 11.155 90.496 C58.768 117.774 58.768 117.774 66.332 142.207 C70.263 157.451 67.966 172.601 60.676 186.422 C50.624 202.558 35.576 211.446 17.512 215.895 C-1.922 218.975 -21.649 213.62 -39.848 207.133 C-43.43 206.236 -45.605 206.231 -49.125 207.312 C-49.744 208.323 -50.362 209.334 -51 210.375 C-51.701 211.344 -52.403 212.314 -53.125 213.312 C-55.765 213.312 -58.405 213.312 -61.125 213.312 C-61.125 194.832 -61.125 176.352 -61.125 157.312 C-58.485 157.312 -55.845 157.312 -53.125 157.312 C-52.99 158.305 -52.854 159.298 -52.715 160.32 C-50.67 173.772 -46.486 186.815 -35.125 195.312 C-20.467 205.174 -4.936 208.899 12.566 205.621 C23.203 202.62 32.177 198.048 37.875 188.312 C41.789 180.854 43.268 172.838 41.191 164.602 C33.426 141.595 11.043 130.857 -8.688 119.312 C-29.958 106.855 -50.045 94.968 -58.125 70.312 C-60.987 57.811 -60.948 41.85 -55.125 30.312 C-54.901 29.869 -54.901 29.869 -53.77 27.625 C-46.944 15.327 -36.277 7.789 -23.121 3.137 C-15.391 1.01 -8.018 -0.051 0 0 Z " fill="#45711D" transform="translate(992.125,233.6875)"/>
<path d="M0 0 C2.697 0.514 4.576 0.219 7.191 -0.582 C8.504 -2.645 8.504 -2.645 9.191 -4.582 C11.501 -4.582 13.811 -4.582 16.191 -4.582 C16.191 11.588 16.191 27.758 16.191 44.418 C13.881 44.418 11.571 44.418 9.191 44.418 C8.9 43.379 8.609 42.34 8.309 41.27 C4.359 27.634 -0.555 16.158 -13.551 8.883 C-21.796 4.966 -29.534 3.037 -38.621 3.105 C-39.015 3.108 -39.015 3.108 -41.01 3.123 C-52.058 3.351 -62.786 6.171 -70.695 14.375 C-76.753 22.046 -77.832 29.824 -76.809 39.418 C-72.712 55.508 -59.671 64.86 -46.168 73.012 C-41.13 75.991 -36.062 78.916 -30.992 81.84 C8.402 104.583 8.402 104.583 19.191 119.418 C19.645 120.014 20.099 120.609 20.566 121.223 C29.493 134.028 30.093 150.323 27.531 165.27 C25.448 172.826 21.794 179.119 17.191 185.418 C16.742 186.052 16.292 186.686 15.828 187.34 C6.064 199.898 -9.331 207.25 -24.809 209.418 C-42.552 211.046 -59.546 206.846 -76.275 201.261 C-83.918 198.785 -83.918 198.785 -87.809 200.418 C-88.407 201.429 -89.005 202.439 -89.621 203.48 C-90.343 204.45 -91.065 205.419 -91.809 206.418 C-94.449 206.418 -97.089 206.418 -99.809 206.418 C-99.809 187.938 -99.809 169.458 -99.809 150.418 C-97.499 150.418 -95.189 150.418 -92.809 150.418 C-92.578 151.601 -92.347 152.785 -92.109 154.004 C-88.865 169.996 -84.307 181.788 -70.246 191.168 C-56.32 199.926 -40.276 201.72 -24.309 198.293 C-13.99 195.225 -5.962 189.493 -0.492 180.176 C3.148 172.438 3.524 163.853 1.496 155.582 C-6.133 134.746 -28.522 123.858 -46.525 113.317 C-90.462 87.529 -90.462 87.529 -97.809 61.418 C-101.537 46.798 -98.875 30.647 -91.328 17.812 C-83.442 5.385 -70.396 -1.847 -56.371 -5.395 C-37.331 -9.007 -18.263 -5.927 0 0 Z " fill="#45711D" transform="translate(1198.80859375,240.58203125)"/>
<path d="M0 0 C0.997 0.07 1.994 0.14 3.021 0.212 C8.845 0.715 14.199 1.868 19.808 3.503 C22.689 4.31 25.532 4.764 28.5 5.125 C44.075 7.35 58.776 12.907 73.404 18.484 C74.962 19.078 76.522 19.666 78.082 20.254 C84.691 22.806 90.948 25.962 97.25 29.188 C99.166 30.148 101.082 31.106 103 32.062 C104.417 32.771 105.833 33.479 107.25 34.188 C107.25 35.508 107.25 36.827 107.25 38.188 C14.19 38.188 -78.87 38.188 -174.75 38.188 C-173.75 33.188 -173.75 33.188 -171.852 31.765 C-171.034 31.398 -170.217 31.031 -169.375 30.652 C-168.471 30.235 -167.568 29.818 -166.637 29.389 C-165.684 28.972 -164.731 28.555 -163.75 28.125 C-162.828 27.704 -161.907 27.283 -160.957 26.85 C-158.23 25.609 -155.491 24.397 -152.75 23.188 C-151.953 22.827 -151.157 22.467 -150.336 22.096 C-145.533 19.929 -140.693 17.949 -135.75 16.125 C-135.051 15.866 -134.351 15.607 -133.631 15.34 C-131.672 14.618 -129.711 13.902 -127.75 13.188 C-126.935 12.887 -126.121 12.587 -125.281 12.277 C-112.198 7.673 -98.373 5.205 -84.786 2.605 C-83.439 2.329 -82.098 2.017 -80.768 1.669 C-55.739 -4.303 -25.494 -1.848 0 0 Z " fill="#293F10" transform="translate(414.75,592.8125)"/>
<path d="M0 0 C4 0 4 0 5.581 1.538 C6.082 2.251 6.584 2.964 7.102 3.699 C7.669 4.49 8.237 5.281 8.821 6.095 C9.417 6.951 10.012 7.806 10.625 8.688 C11.882 10.445 13.14 12.201 14.398 13.957 C15.013 14.822 15.628 15.686 16.261 16.577 C18.524 19.73 20.867 22.812 23.25 25.875 C24.039 26.893 24.828 27.912 25.641 28.961 C26.03 29.462 26.03 29.462 28 32 C29.669 34.165 31.335 36.332 33 38.5 C35.519 41.777 38.039 45.053 40.57 48.32 C45.291 54.423 49.92 60.577 54.406 66.855 C56 69 56 69 58 71 C58.241 73.746 58.241 73.746 58.227 77.286 C58.227 77.93 58.228 78.574 58.228 79.237 C58.227 81.369 58.211 83.501 58.195 85.633 C58.192 87.11 58.189 88.587 58.187 90.063 C58.179 93.953 58.159 97.843 58.137 101.732 C58.117 105.701 58.108 109.669 58.098 113.637 C58.076 121.425 58.042 129.212 58 137 C52.936 136.23 51.258 134.58 47.875 130.688 C46.897 129.581 45.92 128.474 44.941 127.367 C44.449 126.802 43.957 126.237 43.45 125.655 C41.275 123.173 39.045 120.743 36.812 118.312 C36.368 117.828 35.924 117.343 35.467 116.843 C28.721 109.491 21.849 102.256 15 95 C-2.23 76.746 -2.23 76.746 -9.25 68.977 C-11.3 66.727 -13.417 64.557 -15.562 62.398 C-16.165 61.781 -16.767 61.164 -17.388 60.528 C-18.557 59.332 -19.74 58.149 -20.938 56.982 C-23.735 54.093 -24.901 52.599 -25.574 48.535 C-24.918 44.496 -23.557 41.303 -21.625 37.75 C-21.271 37.073 -20.916 36.395 -20.551 35.697 C-19.784 34.234 -19.011 32.775 -18.232 31.318 C-16.95 28.907 -15.699 26.481 -14.453 24.051 C-4.253 4.253 -4.253 4.253 0 0 Z " fill="#59812C" transform="translate(290,199)"/>
<path d="M0 0 C0 40.26 0 80.52 0 122 C-1.32 122 -2.64 122 -4 122 C-5.739 119.965 -7.167 118.037 -8.625 115.812 C-9.511 114.517 -10.399 113.223 -11.289 111.93 C-11.739 111.271 -12.189 110.612 -12.653 109.933 C-14.677 107.029 -16.826 104.23 -19 101.438 C-19.412 100.906 -19.824 100.375 -20.249 99.827 C-21.082 98.754 -21.915 97.681 -22.75 96.609 C-24.844 93.914 -26.921 91.206 -29 88.5 C-31.554 85.176 -34.111 81.855 -36.676 78.539 C-38.389 76.324 -40.094 74.104 -41.793 71.879 C-43.091 70.186 -44.401 68.502 -45.738 66.84 C-47.668 64.367 -48.922 62.442 -49.469 59.328 C-48.785 54.473 -46.303 51.528 -43.375 47.688 C-42.794 46.905 -42.213 46.122 -41.614 45.316 C-35.845 37.624 -29.737 30.214 -23.551 22.855 C-21.4 20.282 -19.295 17.672 -17.188 15.062 C-14.219 11.452 -11.236 7.856 -8.188 4.312 C-7.48 3.484 -6.772 2.655 -6.043 1.801 C-4 0 -4 0 0 0 Z " fill="#5A812D" transform="translate(348,128)"/>
<path d="M0 0 C197.01 0 394.02 0 597 0 C597 0.99 597 1.98 597 3 C399.99 3 202.98 3 0 3 C0 2.01 0 1.02 0 0 Z " fill="#2A7C00" transform="translate(702,464)"/>
<path d="M0 0 C0 3 0 3 -1.928 5.268 C-2.808 6.132 -3.687 6.996 -4.594 7.887 C-5.06 8.349 -5.526 8.81 -6.006 9.286 C-7.497 10.761 -8.998 12.224 -10.5 13.688 C-11.512 14.685 -12.524 15.683 -13.535 16.682 C-16.016 19.129 -18.505 21.567 -21 24 C-21.66 23.67 -22.32 23.34 -23 23 C-21.719 21.293 -20.382 19.626 -19 18 C-18.34 18 -17.68 18 -17 18 C-16.746 17.42 -16.492 16.84 -16.23 16.242 C-12.643 9.705 -5.659 4.715 0 0 Z " fill="#8FAA71" transform="translate(440,446)"/>
<path d="M0 0 C0.66 0.33 1.32 0.66 2 1 C-2.95 5.95 -7.9 10.9 -13 16 C-13 11.936 -11.47 10.948 -8.75 8 C-7.961 7.134 -7.172 6.268 -6.359 5.375 C-4.335 3.337 -2.35 1.638 0 0 Z " fill="#87AC67" transform="translate(954,244)"/>
<path d="M0 0 C0.66 0 1.32 0 2 0 C0.445 3.817 -2.036 6.192 -5 9 C-5.66 8.67 -6.32 8.34 -7 8 C-5.882 6.661 -4.755 5.329 -3.625 4 C-3.312 3.629 -3.312 3.629 -1.727 1.75 C-1.157 1.173 -0.587 0.595 0 0 Z " fill="#87A466" transform="translate(344,128)"/>
</svg>
